<svg id="Layer_1" data-name="Layer 1" xmlns="http://www.w3.org/2000/svg" xmlns:xlink="http://www.w3.org/1999/xlink" viewBox="0 0 1920 1080"><defs><style>.cls-1{fill:none;}.cls-2{clip-path:url(#clip-path);}.cls-3{fill:#ff9a00;}.cls-4{fill:#0e245d;}.cls-5{fill:#0e748c;}.cls-6{fill:#6b2228;}.cls-7{fill:#0056a2;}.cls-8{fill:#284a65;}.cls-9{fill:#fa4000;}.cls-10{fill:#d60000;}.cls-11{fill:#a00808;}</style><clipPath id="clip-path"><rect class="cls-1" width="1920" height="1080"/></clipPath></defs><g class="cls-2"><path class="cls-3" d="M637.32,842.87c-1,7.62,7.49,13.72,15.16,13.36s14.36-5.05,20.57-9.56l15.47-11.23c6.19-4.5,12.54-9.18,16.49-15.73s4.9-15.56.21-21.6c-2.32-3-5.73-4.94-9.09-6.7-10-5.24-40.68-22.18-52.09-17.45-12.6,5.23-5,13.78,2.31,19.74,5,4.09,16.08,5.16,17.54,12.76,2.55,13.25-24.8,22.45-26.57,36.41"/><path class="cls-3" d="M841.79,165.64c.36-3.58-3.67-6.33-7.25-6.06s-6.66,2.53-9.51,4.72l-7.1,5.44c-2.83,2.18-5.75,4.44-7.52,7.56s-2.1,7.33.17,10.1a12.51,12.51,0,0,0,4.33,3c4.75,2.32,19.3,9.87,24.58,7.52,5.82-2.6,2.17-6.5-1.33-9.2-2.39-1.85-7.57-2.22-8.35-5.76-1.36-6.16,11.33-10.8,12-17.35"/><path class="cls-3" d="M136.33,1066.66c.35-3.57-3.68-6.33-7.26-6.06s-6.65,2.54-9.5,4.72l-7.1,5.44c-2.84,2.18-5.76,4.45-7.52,7.56s-2.1,7.33.16,10.11a12.61,12.61,0,0,0,4.34,3c4.75,2.33,19.3,9.88,24.58,7.52,5.82-2.6,2.17-6.5-1.33-9.2-2.4-1.85-7.58-2.22-8.36-5.75-1.35-6.17,11.34-10.81,12-17.36"/><path class="cls-4" d="M30.85,435.61a258.08,258.08,0,0,1-27-36.39C-5.81,383.52-14,366-13.59,346.89c.3-13.77,5.1-27.39,11-40.24,2.23-4.91,4.68-9.82,8.18-14,9.38-11.12,24.59-15,38.59-16a111.51,111.51,0,0,1,23,.54c18.37,2.47,35.15,10.42,51.61,18.27L147.24,309c6.18,2.95,12.4,5.92,17.86,10,12.81,9.61,20.42,24.57,26.85,39.43,3.38,7.78,6.55,15.74,8,24.23,2.3,14-.34,28.63-3.25,42.88-2.36,11.57-5,23.34-10.85,33.8S170.2,479,158.69,481.23c-7.95,1.55-15.9-.25-23.52-2.2a550.86,550.86,0,0,1-78.45-26.54c-12.33-5.24-25.34-11.82-30.58-24.22"/><path class="cls-5" d="M-19.76,459.13a557.14,557.14,0,0,1-53-67.86c-19.25-29-36.1-61.21-37.64-95-1.12-24.43,5.89-48,14.89-70.16,3.45-8.46,7.27-16.88,13.08-23.84C-66.89,183.63-40,178.64-14.85,178.5a207.35,207.35,0,0,1,41.57,3.69c33.39,6.6,64.56,22.73,95.16,38.65l52.82,27.47c11.49,6,23.05,12,33.37,19.92,24.23,18.59,39.73,46.08,53.09,73.24,7,14.22,13.68,28.73,17.21,44,5.82,25.13,2.83,50.81-.7,75.77-2.86,20.27-6.18,40.86-15.5,58.73S236.41,552.85,216,555.47c-14.13,1.81-28.67-2.35-42.62-6.73A1136.14,1136.14,0,0,1,28.86,492.21c-22.83-10.78-47.06-24-58-46.67"/><path class="cls-4" d="M-11.55,448.57a520.06,520.06,0,0,1-48.92-62.26c-17.8-26.61-33.44-56.06-35.11-86.87-1.21-22.27,5-43.72,13-63.81C-79.45,228-76,220.3-70.78,214c14-16.85,38.59-21.18,61.51-21.12a191.36,191.36,0,0,1,38,3.7c30.53,6.28,59.11,21.21,87.16,36L164.31,258c10.53,5.54,21.14,11.12,30.61,18.41,22.28,17.13,36.63,42.3,49.05,67.16,6.51,13,12.71,26.28,16,40.2,5.52,22.94,3,46.31,0,69-2.46,18.45-5.32,37.19-13.69,53.4s-23.25,29.78-41.9,32c-12.89,1.54-26.19-2.36-39-6.46A1055.46,1055.46,0,0,1,33.1,479.09c-20.93-10-43.15-22.25-53.3-43"/><path class="cls-6" d="M117.5,444.62c-6.59-5.94-12.47-12.84-20.13-17.32s-16.69-6.21-25.27-8.72A132.64,132.64,0,0,1,41,404.87c-5.5-3.32-22.61-11.88-19.16-20.48a4.43,4.43,0,0,1,1.79-2.24c1.6-.91,3.73-.18,4.94,1.2a10.28,10.28,0,0,1,2,5,8.15,8.15,0,0,1,.13,3,3,3,0,0,1-1.81,2.27,4.15,4.15,0,0,1-1.92.05c-3.77-.58-6.41-3.94-9.1-6.5a130.43,130.43,0,0,1-9.09-9.57c-3.53-4.12-6.86-8.53-8.76-13.61-5.83-15.59,3.34-33.29,16.18-43.88,22.9-18.88,56.85-21.42,84.09-9.64s47.79,36.29,58.68,63.9c6.15,15.61,9.42,33.36,3.51,49.06-1.15,3.06-2.64,6-3.18,9.26-1.11,6.6,1.91,13.17,2.19,19.87,1.21,28-36.51-1.25-44-8"/><path d="M11.34,373.52c-1.8-1.12-3.77-2-5.26-3.53-2.19-2.2-3-5.37-3.67-8.41.12.54,9.64,4.18,10.82,4.92a38.27,38.27,0,0,1,9.47,7.85c1.95,2.39,2.9,5.69-1.29,5.11-3.8-.53-7-4-10.07-5.94"/><path d="M18.05,360.67a.91.91,0,0,0,.59-.06.75.75,0,0,0,.23-.7,6.29,6.29,0,0,0-1.1-3C16.13,354.3,2.18,342.28.18,348.49c-.89,2.77,3.45,6.88,5.32,8.22,3.63,2.63,8.23,3.31,12.55,4"/><path d="M41.56,379.85a2.83,2.83,0,0,0,1.25.19A2,2,0,0,0,44.23,379a3.79,3.79,0,0,0-.42-3.86,10.93,10.93,0,0,0-3.06-2.68l-8.88-6.05a9.55,9.55,0,0,0-4.72-2.07c-7.3-.33.61,7.39,2.44,8.95a33.73,33.73,0,0,0,12,6.57"/><path d="M34.41,358.9c1.58-1.16,1.83-3.54,1.1-5.36A13.52,13.52,0,0,0,31.84,349c-4.45-4.1-9-8.28-14.66-10.5-2.28-.9-6.75-1.71-7.33,1.72-.51,3,3.79,5.52,5.65,7.08,5.7,4.75,11.87,9.11,18.91,11.61"/><path d="M62.47,378.07c1.22.34,2.82.51,3.44-.58s-.16-2.17-.86-3.06A44.11,44.11,0,0,0,55.46,365a20.93,20.93,0,0,0-12.67-3.89c-2,.12-5.45,1.32-4.47,4,.65,1.78,4.89,3.81,6.4,4.8a66,66,0,0,0,17.75,8.14"/><path d="M31.27,390.8a40.2,40.2,0,0,0,9.64,5.14,121,121,0,0,0,16.8,5.94c1.53.39,3.53.54,4.33-.82s-.15-2.79-1.11-3.86c-5.66-6.29-14.86-7.85-21.81-12.68C37,383,35,381.14,32.43,380.33s-6.51-.23-6.54,2.89c0,2.76,3.43,6,5.38,7.58"/><path d="M27.09,391.26c-1-3.06-2.11-6.34-4.73-8.2a16,16,0,0,0-3.1-1.54c-1-.38-3.56-2-4.08-.37-.22.69,2.94,3.38,3.44,3.87a42.84,42.84,0,0,0,4.13,3.47c.72.53,4.11,2.06,4.34,2.77"/><path d="M69.75,392.54a28.18,28.18,0,0,0,10.19,1.93,1.44,1.44,0,0,0,1.14-.42,1.37,1.37,0,0,0,.2-.77c.07-3-1.94-5.67-4.45-7.25a26,26,0,0,0-8.38-2.88l-12.21-2.68c-2.38-.52-5.78-2-5,1.65,1.23,5.81,13.79,8.82,18.52,10.42"/><path d="M65.55,364.14a1.55,1.55,0,0,0,1.29-.14,1.43,1.43,0,0,0,.41-.93c.51-3.72-1.93-7.19-4.62-9.79C55.79,346.69,46.75,343,38,339.47c-.5,2.35-.94,6.28-.05,8.6,1.1,2.84,5,5.4,7.36,7.14a49.8,49.8,0,0,0,20.29,8.93"/><path d="M29.73,342.18a2.68,2.68,0,0,0,2.07.31,1.87,1.87,0,0,0,.89-2.21,5.07,5.07,0,0,0-1.45-2.14A48.15,48.15,0,0,0,22.33,331c-1.45-.92-6-4-7.18-2-1,1.65,1,3.6,2.07,4.45,3.88,3.22,7.89,6.58,12.51,8.74"/><path d="M6.79,334l7.07,1.53c.4.09,1,.12,1.12-.27a.87.87,0,0,0-.16-.77,8.92,8.92,0,0,0-5.32-4.13,2,2,0,0,0-1.15-.05,1.85,1.85,0,0,0-.74.59,5.75,5.75,0,0,0-1.28,3.29"/><path d="M27.75,332.52a9.9,9.9,0,0,0,4.36,2.58,24.49,24.49,0,0,0,4,.13c5.29.23,9.45,4.43,14.29,6.54a1.69,1.69,0,0,0,.92.2c.54-.1.84-.7,1-1.24.65-2.92-1.46-5.7-3.62-7.76C44,328.5,38.45,325.05,33,321.64c-3.29-2-8.76-4.3-11.12.37-2,3.94,3.33,8.2,5.91,10.51"/><path d="M73.73,354.34c-.73-3.18-10.15-20.51-14.68-14.46-1.72,2.32,1.2,6.56,2.66,8.18A22.91,22.91,0,0,0,67,352.64a55.17,55.17,0,0,0,6.77,1.7"/><path d="M71,359.64a10.78,10.78,0,0,0,1.93,8.16,23.32,23.32,0,0,0,6.28,5.84,63.48,63.48,0,0,0,11,6c1.39.61,3,1.16,4.39.54,1.87-.85,2.27-3.37,1.87-5.38a14.91,14.91,0,0,0-4.5-7.64A36.1,36.1,0,0,0,84.63,362c-2.6-1.47-12.43-8.2-13.65-2.4"/><path d="M77.54,384.34c5.21,4.57,11.41,8.18,18.22,9.53.58-1.85,1.13-3.94.18-5.62a6.91,6.91,0,0,0-2-2,92.69,92.69,0,0,0-13.08-9,43.2,43.2,0,0,1-5.38-3.07c-2.57-1.92-4.47-4.67-7.25-6.24-1.34-.76-3.49-1.26-3.82.67-.25,1.51,2.7,4.31,3.54,5.4a75.48,75.48,0,0,0,9.55,10.35"/><path d="M41.54,320.89a1.19,1.19,0,0,0,1,.13,1.21,1.21,0,0,0,.47-.59c.78-1.63,1.57-3.53.81-5.17a5.18,5.18,0,0,0-2.18-2.09,14.69,14.69,0,0,0-4.56-1.74c-2.58-.52-7.71,1.2-5.31,4.7,1.46,2.14,7.47,3.72,9.74,4.76"/><path d="M52.66,330.68a24.4,24.4,0,0,0,5,1.44,2.16,2.16,0,0,0,1.33,0,1.68,1.68,0,0,0,.85-1.2A4.93,4.93,0,0,0,59,327a10.6,10.6,0,0,0-3.11-2.73,24.42,24.42,0,0,0-6.83-3c-2.38-.63-6.33.14-4.73,3.22,1.19,2.29,6.1,5.17,8.37,6.19"/><path d="M72.84,342.3a3.55,3.55,0,0,0,2.8.71,2.35,2.35,0,0,0,1.3-1.22c.89-1.79,0-4-1.23-5.54a15,15,0,0,0-9.85-5.68,5.58,5.58,0,0,0-2.23.06c-3.53,1-2.43,3.84-.38,5.14,3.25,2.06,6.26,4.54,9.59,6.53"/><path d="M84.09,359.7c1.72.9,3.92,1.35,5.51.26a4.46,4.46,0,0,0,1.54-4.63,10.12,10.12,0,0,0-2.59-4.42c-2.29-2.55-11-9.55-12.94-3.21-1.43,4.76,4.93,10.14,8.48,12"/><path d="M107.05,377.6c2,2.37,3.92,4.85,6.16,7a32,32,0,0,0,6,4.55,7.59,7.59,0,0,0,3.34,1.24,3.14,3.14,0,0,0,3-1.54c.7-1.48-.26-3.17-1.19-4.51q-4.08-5.92-8.16-11.84c-2.84-4.14-5.85-8.42-10.22-10.9a16.83,16.83,0,0,0-8.83-2.15,5.7,5.7,0,0,0-3.21.89c-3.55,2.67,2.35,6.26,4,7.88a126.64,126.64,0,0,1,9,9.36"/><path d="M98.46,349.77c6.32,5.13,13.79,9.07,21.83,10.29a2.54,2.54,0,0,0,1.75-.16,2.13,2.13,0,0,0,.79-1.24c.74-2.52-.44-5.22-2-7.31a35.11,35.11,0,0,0-7.27-6.7,180.33,180.33,0,0,0-22.82-14.51c-2.16-1.16-5.57-2.57-7.41,0s1.12,5,2.64,6.83a87.15,87.15,0,0,0,12.51,12.82"/><path d="M79,323.32A13.73,13.73,0,0,0,74.2,318a40.66,40.66,0,0,0-7.26-4.27c-8.2-3.72-8.91,7.63-3,10.85,2.92,1.6,6.13,2.94,9.14,4.42,2.14,1.06,4.07,2.43,5.7.08,1.11-1.59.94-4,.22-5.71"/><path d="M53.23,318.6c1.44,1.07,3,2.18,4.8,2.19a7.38,7.38,0,0,0,.43-7.22,9.73,9.73,0,0,0-5.08-4.38c-2.06-.87-10.46-3.83-9.87.46.46,3.35,7.24,7.11,9.72,9"/><path d="M81.68,318c2.93,2.38,5.87,4.78,9,6.86a114.34,114.34,0,0,0,16.5,8.42c1.3.57,2.9,1.12,4,.29,1.6-1.15.78-3.71-.47-5.24a29,29,0,0,0-6.06-5.2A97,97,0,0,0,82.08,310.9c-1.74-.61-9.12-3.88-9.37-1.22-.24,2.48,7.22,6.85,9,8.28"/><path d="M127.13,335c-2.43-2.6-5.87-5.32-9.17-4-2.94,1.16-3.88,5.08-2.88,8.07s3.38,5.27,5.59,7.51a123.61,123.61,0,0,1,9,10.27c2.8,3.56,12.94,16.36,17.38,7.85,1.58-3-.56-5.12-2.45-7.34-2.76-3.25-5-6.88-7.49-10.32a132,132,0,0,0-10-12"/><path d="M142.46,398.43c1.66,2.19,3.5,4.51,6.15,5.27a1.71,1.71,0,0,0,1.07.05,1.84,1.84,0,0,0,.85-.93,13.29,13.29,0,0,0,1-10.26c-1.82-5.74-7.24-9.51-10.37-14.65-3.46-5.68-7.95-15.3-16.67-12.7-8.48,2.53,5.11,16.26,7.42,19.3l10.58,13.92"/><path d="M150.08,380.12a46.42,46.42,0,0,1,5.1,9.84c2.15,6.49,1.32,13.61,2.8,20.29a1,1,0,0,0,.4.7c.41.21.85-.22,1.09-.6a17.35,17.35,0,0,0,2.24-10.2,51.67,51.67,0,0,0-2.08-10.4c-.69-2.52-1.37-5-2.06-7.57-1.08-3.94-2.38-8.21-5.74-10.53-1.68-1.16-6.09-2.23-6.33.82-.16,2,3.54,6,4.58,7.65"/><path d="M146.48,440.24a24,24,0,0,0,3.59,9.44,1.64,1.64,0,0,0,.82.72c.69.17,1.27-.53,1.61-1.16,4.66-8.57,3.87-19,2.44-28.64-.71-4.87-4.88-14.93-7.24-5.18-1.92,8-2.7,16.72-1.22,24.82"/><path d="M132.1,422.45c1.52,1.49,3.39,2.92,5.52,2.86,0-5.42,0-10.85-.06-16.28,0-4-.15-8.33-2.76-11.33-1.94-2.24-4.94-3.3-7.87-3.74s-5.93-.34-8.87-.76c-4.13-.59-4.64,1.31-2.61,4.39,1.85,2.8,3.54,5.69,5.21,8.59,3.31,5.74,6.64,11.6,11.44,16.27"/><path d="M99.49,389A72.39,72.39,0,0,0,112,408.85c1.35,1.53,3,3.1,5.06,3a5.46,5.46,0,0,0,0-4.92c-.67-1.57-1.73-2.93-2.53-4.44-1.57-3-2.07-6.37-3-9.6s-2.36-6.55-5.19-8.36a16.49,16.49,0,0,0-4.09-1.69c-5.16-1.62-4.19,2.9-2.85,6.1"/><path d="M118.57,426a2,2,0,0,0,1.25.17,1.5,1.5,0,0,0,.65-.49,4.31,4.31,0,0,0,.37-4.49,12.7,12.7,0,0,0-2.93-3.72c-7.83-7.71-15.7-15.45-24.65-21.82-1.78-1.28-3.76-2.54-6-2.48-6.33.14-3,5.9-1,8.59A72.39,72.39,0,0,0,95.54,412a71,71,0,0,0,23,14"/><path d="M126.07,446.08c4.24,4,9.15,8,15,8.29a2.76,2.76,0,0,0,2.14-.56c.79-.79.48-2.13,0-3.15-3.18-7.12-11-11.71-13-19.24a23.9,23.9,0,0,0-1.1-4,3.93,3.93,0,0,0-3-2.5,1.39,1.39,0,0,0-.75.12,1.8,1.8,0,0,0-.73,1.28c-.52,2.32-1.12,5.07-3.32,6-2.87,1.21-10.64-3.3-6.11,2.41a110,110,0,0,0,10.92,11.31"/><path d="M82.84,415.36a30.79,30.79,0,0,0,7.66,3,2.2,2.2,0,0,0,2-.14c.83-.7.22-2-.41-2.89a73.18,73.18,0,0,0-9.33-11.19C81,402.52,67,393.4,68.83,400c.72,2.58,3.54,5.2,5.2,7.21,2.58,3.1,5.28,6.08,8.81,8.12"/><path d="M74.58,413a21.55,21.55,0,0,0-7.51-7.1,11.38,11.38,0,0,0-3.39-1.34c-3.45-.66-9.69,1.4-4.2,4.1A53.49,53.49,0,0,0,74.58,413"/><path d="M111,427.3c-.81-2-9.14-7.36-9.14-3.46,0,2.08,2.27,3.21,3.82,3.88.94.39,6.58,2.72,5.32-.42"/><path class="cls-7" d="M-2.49,447.14a7.07,7.07,0,0,0,3.55,2.14A2.91,2.91,0,0,0,2,446.2a8.72,8.72,0,0,0-1.64-3L-4.24,437c-2.8-3.76-5.59-7.54-8.66-11.09a128.48,128.48,0,0,0-20.16-18.39,4.67,4.67,0,0,0-1.87-1c-1.71-.36-3.17,1.67-3,3.24s2,2.86,2.89,3.87c3.43,3.86,6.85,7.72,10.38,11.48q10.68,11.4,22.18,22"/><path class="cls-7" d="M14.1,460.87a214.59,214.59,0,0,0,39.74,23.45c3.3,1.49,6.7,2.92,10.29,3.21.87-2.26-.08-4.91-1.73-6.7a19.8,19.8,0,0,0-6.06-4L23.49,460.79c-4.34-2.13-8.75-4.3-12.33-7.55-1.16-1.06-2.6-2.33-4.1-1.84-6.33,2,5.55,8.36,7,9.47"/><path class="cls-7" d="M118.86,508.64c-5-6.44-12.11-10.95-19.66-14A105.62,105.62,0,0,0,83,489.79c-2.39-.55-11.72-4.17-10.69.84.82,4,9.39,6.11,12.59,7.45q7.81,3.29,15.89,5.84c3,1,6.07,1.84,9.14,2.63,1.6.41,8.06.92,9,2.09"/><path class="cls-7" d="M189.85,528.9c.34,2-1.52,3.88-3.51,4.31s-4.07-.16-6-.76Q162.59,527,145,521.16c-6.92-2.3-24.45-4-19.83-14.63,21.6,8,41.49,18.51,64.66,22.37"/><path class="cls-7" d="M240.55,490.58c1.61-3.47,4.16-7.78,7.91-7-.66,10.91-5.43,21.36-12.41,29.78S220,528.24,210.25,533.2c-3.57,1.81-17.07,6.92-14.37-2,1.27-4.2,13.19-7.23,17.41-9.88a72.9,72.9,0,0,0,27.26-30.74"/><path class="cls-7" d="M249,405.74c-.48-2.91-.49-6.81,2.3-7.76a4.18,4.18,0,0,1,4.45,1.68,10.92,10.92,0,0,1,1.74,4.72,71.77,71.77,0,0,1,1.27,13.95c0,4.72-.53,9.41-1,14.09q-.82,7.93-1.67,15.86c-.53,5-1,10-1.79,15-.4,2.64-.72,12.51-2.87,14.13-7.62,5.77-3.19-14.38-2.88-16.08a164.71,164.71,0,0,0,.48-55.55"/><path class="cls-7" d="M236,335.32a10.07,10.07,0,0,0-3.76-3.87c-1.64-.77-4-.44-4.79,1.18a5.2,5.2,0,0,0-.29,2.93c1.38,13.85,6.74,26.94,12,39.81,2.14,5.18,4.24,15.34,10.85,16.87,8.06,1.87,5.21-7.53,4-12.11-4.12-15.59-9.18-31.2-18.05-44.81"/><path class="cls-7" d="M224.41,318.08c-7-10.83-16.39-19.91-25.67-28.88a34.73,34.73,0,0,0-5.66-4.77,3.94,3.94,0,0,0-3.36-.77,3,3,0,0,0-1.58,3.37,8.65,8.65,0,0,0,1.87,3.52q10.56,14.06,22,27.35c2.23,2.58,7.49,11.19,11.35,10.87,5.83-.47,2.91-7.77,1-10.69"/><path class="cls-7" d="M166.74,262.06c-7.73-3.82-16.13-6.11-24.51-8.14-.56-.14-1.26-.21-1.57.26a1.3,1.3,0,0,0,0,1.21c1.33,3.27,4.47,5.38,7.44,7.28l18.37,11.76c3.56,2.28,12.41,10.51,16.79,9.56,12.16-2.64-13.29-20.14-16.56-21.93"/><path class="cls-7" d="M-38.84,201.53a9.3,9.3,0,0,1,4.91-2.35c9.3-2.16,19-1.92,28.51-1.66l14.1.39a10.79,10.79,0,0,1,4.48.75,3.75,3.75,0,0,1,2.29,3.61c-.32,2.3-3.14,3.16-5.44,3.48a208.25,208.25,0,0,1-28.78,2c-3.17,0-26.76,1.17-20.07-6.21"/><path class="cls-7" d="M23.5,200.2A80.24,80.24,0,0,1,61.34,211a3.94,3.94,0,0,1,1.79,1.65c.55,1.34-.58,2.88-2,3.31a7.74,7.74,0,0,1-4.25-.27q-12.47-3.16-24.81-6.75c-2.29-.67-9.19-1.46-10.41-3.64-.75-1.35-.08-5.15,1.79-5.1"/><path class="cls-7" d="M69.34,214.16c2.36-.25,4.61,1,6.66,2.17l31,18a13,13,0,0,1-9,.82,39,39,0,0,1-8.54-3.48c-6.06-3.06-12.15-6.09-18.2-9.18-1.65-.84-5.47-1.92-5.77-4.16-.25-1.69,2-4.53,3.83-4.14"/><path class="cls-7" d="M136.16,249.17c1.17.74,2.47,1.71,2.51,3.09a2.89,2.89,0,0,1-2.11,2.62,6.94,6.94,0,0,1-3.56-.07c-5.11-1.14-9.71-3.85-14.21-6.53-1.83-1.09-8.73-3.81-9.24-5.91-1-3.91,4-4.3,6.11-3.93,6.74,1.19,14.77,7.14,20.5,10.73"/><path class="cls-4" d="M767.4,504.68a84.75,84.75,0,0,1,14.83-3.81c6.12-1,12.6-1.26,18.34,1.47,4.15,2,7.62,5.38,10.72,9a19.88,19.88,0,0,1,3.11,4.56c2.08,4.56,1.13,10-.51,14.7a41.6,41.6,0,0,1-3.36,7.4c-3.32,5.62-8.07,10-12.75,14.26l-8.08,7.38a36.4,36.4,0,0,1-5.52,4.44c-4.71,2.85-10.32,3.28-15.74,3.35a32.59,32.59,0,0,1-8.47-.73c-4.58-1.15-8.66-4-12.6-6.88-3.19-2.34-6.4-4.8-8.77-8.13S734.81,544,735.73,540a19.82,19.82,0,0,1,3.95-7.34,200.36,200.36,0,0,1,19-21.84c3.31-3.29,7.12-6.62,11.63-6.63"/><path class="cls-5" d="M767.28,485.06a182.32,182.32,0,0,1,28-8c11.52-2.3,23.65-3.39,34.14.71,7.6,3,13.8,8.45,19.27,14.38a29.68,29.68,0,0,1,5.44,7.49c3.5,7.58,1.27,17-2.18,25.17a77.72,77.72,0,0,1-6.91,13c-6.65,9.94-15.9,17.86-25,25.62l-15.7,13.4A78.29,78.29,0,0,1,793.65,585c-9,5.34-19.54,6.62-29.67,7.27a66.3,66.3,0,0,1-15.76-.4c-8.46-1.53-15.85-6-23-10.54-5.76-3.69-11.57-7.57-15.71-13s-6.42-12.83-4.37-19.82c1.42-4.83,4.7-9,8-12.92a408.47,408.47,0,0,1,37.3-39.18c6.45-5.94,13.85-12,22.26-12.47"/><path class="cls-4" d="M769.36,489.16a171.78,171.78,0,0,1,25.74-7.4c10.57-2.15,21.71-3.22,31.31.43,7,2.64,12.61,7.57,17.6,12.92a26.36,26.36,0,0,1,4.94,6.75c3.17,6.86,1.08,15.41-2.13,22.84a70.79,70.79,0,0,1-6.41,11.82c-6.16,9.05-14.68,16.29-23.07,23.39l-14.48,12.25a72.11,72.11,0,0,1-9.86,7.43c-8.31,4.89-18,6.13-27.26,6.77a60.71,60.71,0,0,1-14.46-.26c-7.74-1.33-14.5-5.34-21-9.41C725,573.38,719.72,569.91,716,565s-5.83-11.59-3.91-18c1.33-4.39,4.37-8.18,7.39-11.76a380,380,0,0,1,34.43-35.77c5.95-5.43,12.77-11,20.49-11.45"/><path class="cls-6" d="M752.6,531.57c2.72-1.33,5.64-2.29,8.07-4.17s4.21-4.58,6.17-7a47.56,47.56,0,0,1,8.49-8.23c1.78-1.33,6.76-5.72,8.9-3.43a1.47,1.47,0,0,1,.43.89,1.48,1.48,0,0,1-1,1.43,3.22,3.22,0,0,1-1.82,0,2.35,2.35,0,0,1-.93-.36,1,1,0,0,1-.44-.9,1.44,1.44,0,0,1,.25-.63c.7-1.15,2.09-1.55,3.25-2.07,1.36-.62,2.76-1.17,4.17-1.65a15.31,15.31,0,0,1,5.36-1c5.55.24,9.66,5.62,11.09,11.23,2.56,10-1.38,21.36-8.76,28.59s-17.69,10.57-27.61,10.35c-5.6-.13-11.45-1.48-15.41-5.54a17.15,17.15,0,0,0-2.37-2.3c-1.86-1.25-4.28-1.17-6.35-2-8.7-3.43,5.46-11.69,8.56-13.2"/><path d="M789,506.8a9,9,0,0,1,1.81-1.22,5.18,5.18,0,0,1,3.07-.05c-.18,0-2.62,2.56-3,2.84a12.94,12.94,0,0,1-3.7,2c-1,.3-2.14.16-1.38-1.12s2.18-1.71,3.21-2.46"/><path d="M792,510.73a.31.31,0,0,0-.07.2.25.25,0,0,0,.19.17,1.93,1.93,0,0,0,1,0c1-.17,6.64-3.06,5-4.55-.72-.66-2.57.18-3.24.6a10.06,10.06,0,0,0-2.95,3.54"/><path d="M782.87,515.75a1,1,0,0,0-.24.38.76.76,0,0,0,.13.6,1.18,1.18,0,0,0,1.23.39,4,4,0,0,0,1.25-.63l3.07-2a3.47,3.47,0,0,0,1.29-1.26c1.11-2.32-2.34-.8-3.07-.42a12.07,12.07,0,0,0-3.66,3"/><path d="M790.24,516.28a1.48,1.48,0,0,0,1.48,1.08,4.4,4.4,0,0,0,1.89-.57,16.88,16.88,0,0,0,5.23-3.33c.59-.61,1.46-2,.5-2.6s-2.21.47-2.94.86a21.92,21.92,0,0,0-6.16,4.56"/><path d="M780.5,522.78c-.27.34-.55.84-.3,1.19s.68.24,1,.14a14.93,14.93,0,0,0,4.2-1.83,7.57,7.57,0,0,0,2.94-3.59c.25-.68.36-1.94-.59-2-.64,0-1.84,1.07-2.35,1.43a23.21,23.21,0,0,0-5,4.65"/><path d="M781,510.92a14,14,0,0,0-2.9,2.43,43.5,43.5,0,0,0-4.15,4.64c-.33.44-.66,1.07-.35,1.51s.87.34,1.33.17c2.7-1,4.45-3.75,6.89-5.35a9.69,9.69,0,0,0,2.2-1.6c.58-.69,1-2.08,0-2.52s-2.31.3-3,.72"/><path d="M781.41,509.5a4.85,4.85,0,0,0,3.15-.42,6.21,6.21,0,0,0,.91-.79c.24-.26,1.09-.89.68-1.28-.18-.17-1.44.49-1.66.59a12.74,12.74,0,0,0-1.63.87c-.26.16-1.2,1-1.45,1"/><path d="M775.09,523.17a10.31,10.31,0,0,0-2,3,.54.54,0,0,0,0,.43.44.44,0,0,0,.21.17,2.84,2.84,0,0,0,2.82-.46,9.15,9.15,0,0,0,2-2.33l2.52-3.6c.49-.69,1.41-1.59.2-1.84-2-.39-4.61,3.27-5.75,4.59"/><path d="M784.31,525.67a.57.57,0,0,0-.14.44.43.43,0,0,0,.23.25,3.88,3.88,0,0,0,3.62-.16c3-1.32,5.33-3.75,7.63-6.13a5.72,5.72,0,0,0-2.6-1.19c-1,0-2.35.9-3.2,1.42a17.84,17.84,0,0,0-5.54,5.37"/><path d="M796,517a1,1,0,0,0-.39.62.63.63,0,0,0,.55.6,1.7,1.7,0,0,0,.85-.18,16.85,16.85,0,0,0,3.41-1.92c.48-.35,2-1.4,1.62-2.06s-1.24-.15-1.64.07A20.42,20.42,0,0,0,796,517"/><path d="M801.66,510.71l-1.44,2.09c-.09.12-.17.29-.08.4a.3.3,0,0,0,.26,0,3.08,3.08,0,0,0,2-1.17.56.56,0,0,0,.1-.68,1.94,1.94,0,0,0-.83-.87"/><path d="M799.19,517.71a3.47,3.47,0,0,0-1.39,1.06,9.48,9.48,0,0,0-.6,1.29c-.81,1.68-2.66,2.46-4,3.74a.67.67,0,0,0-.19.28.52.52,0,0,0,.24.48c.8.61,1.94.3,2.87-.12a34,34,0,0,0,5.64-3.56c1.07-.79,2.52-2.26,1.43-3.66-.92-1.18-3,0-4,.49"/><path d="M786.15,529.66c1.07.19,7.65-.51,6.44-2.8-.46-.87-2.16-.5-2.86-.25a8,8,0,0,0-2.12,1.08,20.88,20.88,0,0,0-1.46,2"/><path d="M784.92,528a3.44,3.44,0,0,0-2.75-.48,7.74,7.74,0,0,0-2.65,1.24,22.7,22.7,0,0,0-3.37,2.76,2.07,2.07,0,0,0-.76,1.36c0,.72.7,1.19,1.37,1.33a4.78,4.78,0,0,0,2.94-.41,12.54,12.54,0,0,0,2.59-1.69c.81-.65,4.23-2.92,2.63-4.11"/><path d="M776.5,526.81a14.1,14.1,0,0,0-5.44,4.62,2.3,2.3,0,0,0,1.69.82,2.48,2.48,0,0,0,.88-.36,32.74,32.74,0,0,0,4.56-3,14.32,14.32,0,0,1,1.69-1.33,28.39,28.39,0,0,0,2.9-1.5c.42-.33.87-1,.33-1.33s-1.68.29-2.14.41a24.42,24.42,0,0,0-4.47,1.69"/><path d="M800.81,523.76a.33.33,0,0,0-.07.55c.39.48.86,1,1.46,1a1.82,1.82,0,0,0,.94-.42,5.31,5.31,0,0,0,1.16-1.25c.52-.76.71-2.66-.69-2.36-.85.18-2.17,1.92-2.8,2.51"/><path d="M796.28,526a9.79,9.79,0,0,0-1.13,1.42,1,1,0,0,0-.19.43.65.65,0,0,0,.25.45,1.59,1.59,0,0,0,1.32.25,3.54,3.54,0,0,0,1.27-.64,8.58,8.58,0,0,0,1.85-1.81c.52-.68.84-2.07-.32-2a7.67,7.67,0,0,0-3.05,1.87"/><path d="M789.94,531a1.33,1.33,0,0,0-.61.81.91.91,0,0,0,.19.59,1.75,1.75,0,0,0,1.86.35,5.29,5.29,0,0,0,3.1-2.42,2,2,0,0,0,.29-.73c.2-1.28-.83-1.32-1.51-.83-1.08.78-2.25,1.42-3.32,2.23"/><path d="M783.08,532.29a2,2,0,0,0-.85,1.75,1.46,1.46,0,0,0,1.2,1.13,3.23,3.23,0,0,0,1.7-.24c1.1-.4,4.45-2.28,2.78-3.76-1.25-1.11-3.77.22-4.83,1.12"/><path d="M774.44,537.3c-1,.34-2,.62-3,1.05a11.12,11.12,0,0,0-2.22,1.32,2.84,2.84,0,0,0-.84.92,1.13,1.13,0,0,0,.05,1.19c.35.43,1,.35,1.53.23l4.74-1a11.43,11.43,0,0,0,4.74-1.84,6.12,6.12,0,0,0,1.88-2.57,2.06,2.06,0,0,0,.17-1.17c-.31-1.51-2.23-.08-3,.25a41.28,41.28,0,0,1-4.1,1.65"/><path d="M784.1,538.3a16.44,16.44,0,0,0-6.17,5.69.93.93,0,0,0-.19.59.72.72,0,0,0,.26.42,2.74,2.74,0,0,0,2.51.34,12,12,0,0,0,3-1.45,62.76,62.76,0,0,0,7.59-5.42c.66-.55,1.56-1.46,1-2.41s-1.67-.31-2.45-.07a29.6,29.6,0,0,0-5.64,2.31"/><path d="M794.86,535.58a4.52,4.52,0,0,0,2.3-.82,14.08,14.08,0,0,0,2.3-1.77c2.28-2.16-1.07-3.93-2.87-2.46-.9.73-1.75,1.6-2.62,2.36-.62.56-1.31,1-.82,1.85a2,2,0,0,0,1.71.84"/><path d="M799.88,527.87a3.08,3.08,0,0,0-1.34,1.26,2.35,2.35,0,0,0,2.14,1.12,3.32,3.32,0,0,0,2-1c.55-.55,2.62-2.87,1.23-3.27-1.08-.31-3.17,1.39-4.07,1.94"/><path d="M796.11,537.19c-1.13.63-2.27,1.25-3.34,2a40.32,40.32,0,0,0-4.85,4.21c-.36.34-.75.79-.66,1.27.13.68,1,.76,1.66.57a10.21,10.21,0,0,0,2.43-1.26,34.84,34.84,0,0,0,6.86-5.69c.42-.48,2.44-2.43,1.67-2.88s-3.09,1.42-3.77,1.79"/><path d="M784.59,549.61c1.13-.43,2.44-1.18,2.5-2.43a2.12,2.12,0,0,0-2.05-2,6.93,6.93,0,0,0-3.07.79,41.18,41.18,0,0,1-4.37,1.53c-1.48.42-6.78,2-4.81,4.57.69.92,1.63.52,2.57.2,1.37-.45,2.79-.67,4.18-1a42.94,42.94,0,0,0,5.05-1.61"/><path d="M763.18,546a4.43,4.43,0,0,0-2.46,1.27.72.72,0,0,0-.17.35.63.63,0,0,0,.17.4,4.22,4.22,0,0,0,3,1.71c2,.19,3.91-1.05,5.91-1.37,2.21-.35,5.75-.5,6.17-3.68s-5.65-.56-6.9-.22l-5.7,1.54"/><path d="M767.68,550.92a14.86,14.86,0,0,1-3.69.32c-2.28-.19-4.33-1.42-6.57-1.85a.32.32,0,0,0-.27,0c-.12.11,0,.3,0,.43A5.52,5.52,0,0,0,760,552a16.33,16.33,0,0,0,3.45.74l2.6.36a5.67,5.67,0,0,0,4-.43c.58-.38,1.53-1.67.63-2.17-.58-.31-2.32.34-3,.45"/><path d="M749.9,541.57a7.67,7.67,0,0,0-3.37-.12.61.61,0,0,0-.34.17c-.14.2,0,.48.13.68,2,2.68,5.25,3.84,8.38,4.69,1.57.43,5.21.45,2.58-1.64a19.42,19.42,0,0,0-7.38-3.78"/><path d="M757.31,539.33a2.88,2.88,0,0,0-1.64,1.4l5,2.19c1.21.54,2.56,1.09,3.83.65a4.45,4.45,0,0,0,2.24-2.05c.54-.89.93-1.87,1.46-2.77.76-1.26.25-1.68-1-1.44s-2.22.37-3.34.52a23.54,23.54,0,0,0-6.54,1.5"/><path d="M772,533.3a23.45,23.45,0,0,0-7.79,1.37,2.49,2.49,0,0,0-1.63,1.22,1.74,1.74,0,0,0,1.49.68c.58,0,1.14-.16,1.71-.22a15,15,0,0,1,3.33.35,4.49,4.49,0,0,0,3.27-.55,5.87,5.87,0,0,0,1.08-1.09c1.21-1.46-.3-1.76-1.46-1.76"/><path d="M758.11,534.45a.76.76,0,0,0-.22.39.51.51,0,0,0,.06.27,1.38,1.38,0,0,0,1.31.74,4.26,4.26,0,0,0,1.54-.45,69.56,69.56,0,0,0,10.07-5,3.73,3.73,0,0,0,1.58-1.59c.84-2.08-1.37-1.79-2.47-1.5a24.09,24.09,0,0,0-4.39,1.61,25,25,0,0,0-7.48,5.56"/><path d="M751,534.16c-1.81.82-3.7,1.87-4.6,3.72a1,1,0,0,0-.13.78c.13.36.58.44.95.44,2.61-.07,5.1-2,7.67-1.62a7.81,7.81,0,0,0,1.36.19,1.37,1.37,0,0,0,1.18-.64.63.63,0,0,0,.07-.26.64.64,0,0,0-.29-.41c-.64-.49-1.39-1.06-1.36-1.9,0-1.09,2.48-3,.11-2.31a37.05,37.05,0,0,0-5,2"/><path d="M766.32,524.31a10.81,10.81,0,0,0-2,2.08.79.79,0,0,0-.23.65c.1.36.58.35.93.26a24.36,24.36,0,0,0,4.71-1.5c.73-.35,5.45-3.65,3.18-3.95a7.78,7.78,0,0,0-2.92.71,11.33,11.33,0,0,0-3.7,1.75"/><path d="M768.18,522a7.26,7.26,0,0,0,3.2-1.47,4.31,4.31,0,0,0,.89-.92c.67-1,.92-3.34-.66-1.92a19.43,19.43,0,0,0-3.43,4.31"/><path d="M758.77,531.83c.72,0,3.51-2,2.33-2.5-.64-.28-1.3.3-1.72.71-.25.25-1.74,1.78-.61,1.79"/><path class="cls-7" d="M803.42,483.23a7.77,7.77,0,0,1,.81,2c1.49,0,11.4-.58,11.08-2.81-.24-1.66-4.11-.49-5-.34-.68.12-6.61,1.54-6.84,1.15"/><path class="cls-7" d="M800.23,485A60.75,60.75,0,0,1,788.59,487c-.4,0-.88,0-1.08-.33a.83.83,0,0,1,.21-.91,2.18,2.18,0,0,1,.86-.46,50.84,50.84,0,0,1,8.21-2.44,11.49,11.49,0,0,1,4.15-.32c1.77.41.45,2-.71,2.37"/><path class="cls-7" d="M768.53,492.3a2.46,2.46,0,0,0-1.15.86,1,1,0,0,0,.81.72,2.74,2.74,0,0,0,1.13-.13l2.53-.65c1.53-.39,3.07-.79,4.58-1.3a43.41,43.41,0,0,0,8.39-4,1.86,1.86,0,0,0,.57-.47,1,1,0,0,0-.56-1.42c-.46-.15-1.15.26-1.58.41-1.65.59-3.3,1.17-4.94,1.81q-5,1.9-9.78,4.2"/><path class="cls-7" d="M762,495.81a75.83,75.83,0,0,0-12.67,9.71,11.57,11.57,0,0,0-2.4,2.9,2.14,2.14,0,0,0,2.28.35,7.15,7.15,0,0,0,2-1.43l9.46-8.47a18.19,18.19,0,0,1,4-3c.49-.24,1.07-.53,1.13-1.08.27-2.33-3.31.66-3.86,1"/><path class="cls-7" d="M732.93,523.3a16.06,16.06,0,0,0,7-4.47,38.62,38.62,0,0,0,3.74-4.61c.49-.7,2.9-3.24,1.23-3.58-1.33-.28-3.17,2.21-4,3.07-1.39,1.39-2.73,2.85-4,4.36-.71.85-1.41,1.72-2.07,2.6-.35.47-1.4,2.5-1.89,2.63"/><path class="cls-7" d="M716.89,543.58a1.45,1.45,0,0,1-.82-1.73,4.61,4.61,0,0,1,1.07-1.85q4.11-5,8.35-9.91c1.66-1.94,4.62-7.39,7.21-4.45-5.46,5.92-11.41,11-15.81,17.94"/><path class="cls-7" d="M721.49,565.25c.84,1,1.79,2.4,1,3.52a17.33,17.33,0,0,1-7.33-8.08,28.88,28.88,0,0,1-2.45-11.08c0-1.4.26-6.48,2.6-4.39,1.1,1,.36,5.26.59,7a25.42,25.42,0,0,0,5.55,13"/><path class="cls-7" d="M746.13,579.52c1,.24,2.14.77,2,1.81a1.5,1.5,0,0,1-1.13,1.21,3.42,3.42,0,0,1-1.68-.08A22.87,22.87,0,0,1,741,581c-1.43-.66-2.79-1.45-4.15-2.25L732.21,576c-1.45-.85-2.89-1.7-4.3-2.61-.75-.49-3.71-1.94-3.9-2.85-.69-3.26,4.81.92,5.29,1.25a52,52,0,0,0,16.83,7.71"/><path class="cls-7" d="M769.35,584.91a3.28,3.28,0,0,0,1.7-.69,1.36,1.36,0,0,0,.31-1.72,1.62,1.62,0,0,0-.85-.49c-4.4-1.44-9.14-1.48-13.78-1.51-1.88,0-5.26-.71-6.65,1.22-1.69,2.36,1.57,2.72,3.13,2.95,5.32.78,10.77,1.26,16.14.24"/><path class="cls-7" d="M776.22,583.49c4.27-.81,8.33-2.62,12.35-4.41a12.38,12.38,0,0,0,2.25-1.18,1.47,1.47,0,0,0,.7-1,1,1,0,0,0-.81-1,2.81,2.81,0,0,0-1.34.13q-5.73,1.51-11.38,3.43c-1.09.37-4.45.9-4.89,2.2-.67,1.95,2,2,3.12,1.79"/><path class="cls-7" d="M801.28,572.39a42,42,0,0,0,5.89-6.84c.12-.16.24-.38.14-.55s-.24-.14-.37-.15a5.85,5.85,0,0,0-3.25,1.43l-6.14,4.35c-1.19.85-4.93,2.6-5.25,4.15-.88,4.31,8-1.57,9-2.39"/><path class="cls-7" d="M816.88,483.59a25.13,25.13,0,0,1,16.21,5.48c.49.38,1.23.79,1.67.31a1,1,0,0,0,0-1.17,2.4,2.4,0,0,0-1-.69l-4-1.86a65.5,65.5,0,0,0-7.45-3.12,16.12,16.12,0,0,0-4-1c-1.83-.07-1.7.26-1.49,2"/><path class="cls-7" d="M842.23,499.59a52.22,52.22,0,0,1,4.44,10.21,1.8,1.8,0,0,0,.4.76,1.19,1.19,0,0,0,1.72-.44,3.09,3.09,0,0,0,.24-2.06,17,17,0,0,0-2.73-6.32,86.86,86.86,0,0,0-6-8.44c-1.64-2.06-3.44-4.44-5.52-1.5a28.2,28.2,0,0,1,7.44,7.79"/><path class="cls-7" d="M848.3,513.93a3.43,3.43,0,0,1,0,1.91,42.14,42.14,0,0,1-3.47,9.48l-2.08,4.52a4,4,0,0,1-.85,1.35,1.22,1.22,0,0,1-1.41.25c-.66-.42-.53-1.45-.31-2.24a79.42,79.42,0,0,1,3.4-9.61c.44-1,3.37-8.84,4.68-5.66"/><path class="cls-7" d="M840,534.34a29.33,29.33,0,0,1-8.55,10.81,1.31,1.31,0,0,1-.75.35c-.48,0-.79-.58-.74-1.08a3,3,0,0,1,.68-1.35q2.7-3.6,5.51-7.13c.51-.65,1.71-2.78,2.55-2.88.52-.06,1.58.68,1.3,1.28"/><path class="cls-7" d="M829.41,547.31a4.23,4.23,0,0,1-1.59,1.87L818,556.8a5,5,0,0,1,1-3,13.93,13.93,0,0,1,2.25-2.29c1.78-1.56,3.54-3.12,5.32-4.66.49-.42,1.35-1.51,2.07-1.31a1.46,1.46,0,0,1,.73,1.81"/><path class="cls-7" d="M809.46,564.23c-.39.28-.86.57-1.29.39a1,1,0,0,1-.5-1,2.54,2.54,0,0,1,.51-1.15,18,18,0,0,1,4-3.72c.58-.45,2.37-2.31,3.08-2.19,1.32.22.75,1.88.34,2.52-1.29,2-4.22,3.82-6.11,5.19"/><path class="cls-8" d="M430.84,342.54c-3.93,21.39-1.75,43.31,4.66,63.37,3.77,11.81,9.09,23.22,17.39,32.06,16.9,18,44.57,22.9,69.38,16.65s47-22.28,65.37-41.13c14.85-15.2,28.57-35.74,24.25-55.79-1.58-7.35-5.46-13.77-9.3-20.05C592.1,320.49,581.23,303,565.36,291,542.78,273.89,512,270.58,484,277.83,471,281.17,459.65,285,451.1,296.1a108.89,108.89,0,0,0-20.26,46.44"/><path class="cls-9" d="M480.37,304.66c-6.88,1.68-11.44,8-15.39,13.9-3.69,5.51-7.54,11.52-7.33,18.16a21.45,21.45,0,0,0,2.35,8.67c2.2,4.54,5.77,8.76,10.63,10.11,3.14.87,6.5.45,9.72-.1,7.21-1.25,14.44-3.21,20.57-7.21,10.38-6.77,17.34-22.18,7.61-32.66-5.43-5.84-20.39-12.76-28.16-10.87"/><path class="cls-10" d="M494.5,322.29a17.21,17.21,0,0,0-19.1,8.08,6.7,6.7,0,0,0-1,4.56c.61,2.8,3.79,4.17,6.61,4.66,6,1,12.92-.37,16.45-5.32s1.24-13.55-4.78-14.46c-4.29-.65-8.13,2.48-11.22,5.51"/><path class="cls-9" d="M475.36,371.43c-1.82-3.6-5.93-5.31-9.72-6.74-3.54-1.34-7.37-2.69-11-1.72a12.29,12.29,0,0,0-4.51,2.43c-2.24,1.81-4.12,4.34-4.24,7.21a12.67,12.67,0,0,0,1.32,5.39,30.93,30.93,0,0,0,6.67,10.49c5.1,4.89,14.56,6.76,19.12,0,2.54-3.77,4.44-13,2.39-17.05"/><path class="cls-10" d="M467.4,381.57a9.84,9.84,0,0,0-7-9.57,3.86,3.86,0,0,0-2.66,0c-1.48.7-1.82,2.64-1.73,4.27.21,3.46,1.88,7.14,5.09,8.45s7.69-1.07,7.41-4.52c-.2-2.47-2.43-4.2-4.52-5.52"/><path class="cls-9" d="M527.51,341.61c-4-.9-7.89,1.17-11.4,3.16-3.29,1.88-6.78,4-8.36,7.41a12,12,0,0,0-1,5c0,2.88.71,5.94,2.85,7.87a12.78,12.78,0,0,0,5,2.42,31.1,31.1,0,0,0,12.34,1.57c7-.82,14.5-6.9,12.2-14.74-1.28-4.36-7.16-11.7-11.6-12.71"/><path class="cls-10" d="M530.23,354.2a9.81,9.81,0,0,0-11.81-.74,3.86,3.86,0,0,0-1.67,2.07c-.4,1.59.87,3.1,2.19,4.06,2.79,2.05,6.68,3.11,9.74,1.48s4.09-6.61,1.25-8.6c-2-1.42-4.78-.8-7.13,0"/><path class="cls-9" d="M528.27,436.3c7.42-3.3,11.29-11.39,14.54-18.84,3.05-7,6.16-14.57,4.57-22a24.89,24.89,0,0,0-4.42-9.32c-3.41-4.68-8.32-8.72-14.08-9.24-3.73-.35-7.44.81-11,2.09-7.9,2.88-15.67,6.59-21.77,12.35-10.34,9.77-15.07,28.59-1.91,38.45,7.32,5.5,25.64,10.25,34,6.53"/><path class="cls-10" d="M508.69,419.27a19.77,19.77,0,0,0,19.94-13,7.71,7.71,0,0,0,.19-5.35c-1.26-3-5.13-3.94-8.42-3.91-7,.06-14.52,3-17.49,9.37s1.37,15.57,8.35,15.36c5-.14,8.68-4.47,11.55-8.53"/><path d="M456,300.86c-4.45,1.38-9.44,2.39-12.39,6-4.66,5.69-1,15.22,5.78,18.17s14.79.66,20.78-3.6,10.51-10.25,15.46-15.68,10.76-10.59,17.92-12.28a14.54,14.54,0,0,1,10,.82c4.81,2.49,7.05,8.31,7.09,13.72s-1.71,10.65-2.93,15.93C512.14,348,519,376,539,390.52a38.58,38.58,0,0,0,16.16,7.14c11.34,1.9,22.85-2.68,32.48-9,10-6.52,18.81-15.2,23.73-26,2.84-6.23,3.59-15-2.21-18.62-4.32-2.7-10.21-.88-14,2.52S589,354.6,586,358.72a48.17,48.17,0,0,1-36.55,19.59c-3.72.15-8.6-1.27-8.61-5,0-2.26,1.93-4,3.37-5.71,7.4-8.91,3.32-22.08,3-33.65-.28-8.83,1.89-17.58,2.2-26.41s-1.7-18.5-8.49-24.17c-3.92-3.28-9-4.84-14-5.93-10.39-2.27-29.78-5.81-39.61-.21-11.77,6.71-16.7,19.08-31.26,23.61"/><path class="cls-11" d="M461.09,298.1c1.58,5.44-7,5.95-10.43,3.92l-24.81-14.65a10.22,10.22,0,0,1-3.94-3.35,8.76,8.76,0,0,1-.88-4.51,11.32,11.32,0,0,1,1.15-5.51,5.06,5.06,0,0,1,4.62-2.78,7.87,7.87,0,0,1,3.43,1.5,108.51,108.51,0,0,1,13.49,9.77c5.7,5.07,11.86,9.55,17.39,14.68,6.08,5.64,10,4.05,14.28-2.56a5.81,5.81,0,0,0,1.12-2.53,5.19,5.19,0,0,0-1-3c-5.11-8.46-15.05-12.72-24.7-14.84-2-.43-4.38-.7-5.84.74-1.31,1.28-1.27,3.49-.41,5.11a13.78,13.78,0,0,0,3.75,4,146.14,146.14,0,0,1,16,15.34"/><path class="cls-11" d="M465.29,274.45a23.66,23.66,0,0,1-4.71-3.85,10,10,0,0,1-2.53-7.41,7.68,7.68,0,0,1,4.41-6.27c4-1.71,8.51.78,12.18,3.17q6.18,4.05,12.37,8.07a17,17,0,0,1,4.53,3.8,5.68,5.68,0,0,1,.91,5.59c-1.4,3-5.59,3.31-8.15,5.45-4.07,3.39-4.36,1.7-8-1.08-3.5-2.67-7.34-5-11-7.47"/><path class="cls-11" d="M460.39,279.9c-4.17-2-8.52-3.6-12.42-6.06-3.34-2.11-6.52-5.21-6.85-9.15-.25-3,1.27-6,3.16-8.37a5,5,0,0,1,1.12-1.12,4.2,4.2,0,0,1,2.36-.56,8.45,8.45,0,0,1,7.43,4.94,49.29,49.29,0,0,1,1.41,5.1c3,9.61,16.38,12.86,19.51,22.43,1.08,3.28-5.93-1.73-6.3-2a82.48,82.48,0,0,0-9.42-5.24"/><path class="cls-11" d="M494.57,278.5a1,1,0,0,0,.57.16c.51,0,.65-.73.62-1.25-.21-3.83-2-7.42-4.12-10.6-2.69-4-6.15-7.9-6.35-12.7-.09-2.24.56-4.51.21-6.73-1.51-9.36-14,2-11.35,8.89,3.08,8,13,18.3,20.42,22.23"/><path class="cls-11" d="M513.94,272.45a8.94,8.94,0,0,1,.55,2.83,6.05,6.05,0,0,1-5.12,5.47,8.85,8.85,0,0,1-7.38-2.66c-2.7-2.63-4-6.41-6.38-9.3-1.7-2-4-3.59-5.27-5.9-2.37-4.21-1.32-10.76,4.43-11,3.2-.15,5.12,2.73,8,3.18,2.58.4,7.74-1.15,9.73-2.61a7.24,7.24,0,0,0,2.39-3.76,15.58,15.58,0,0,0-14.16-20.27,4.13,4.13,0,0,0-2.28.39,4.81,4.81,0,0,0-1.38,1.49l-4,5.76a9.64,9.64,0,0,0-1.43,2.61,7.76,7.76,0,0,0,1,5.72c2.83,5.35,8.25,8.09,11.92,12.66,3.84,4.77,7.38,9.53,9.29,15.43"/><path class="cls-11" d="M525.57,280.16a3.9,3.9,0,0,0,1.75.22,3.42,3.42,0,0,0,1.48-.83,10.43,10.43,0,0,0,3.56-7.92,17.54,17.54,0,0,0-1.52-6.17c-2.08-5.19-5.13-10.31-10-13.07a3.78,3.78,0,0,0-1.63-.59,4.25,4.25,0,0,0-1.92.52l-6.54,2.89a2,2,0,0,0-.88.6,1.84,1.84,0,0,0-.22,1.11c.14,5.17,2.85,9.68,5.24,14.09,3,5.57,4.31,7.26,10.67,9.15"/><path class="cls-11" d="M544.87,273.46c.37-2.32.75-4.75,0-7a12.83,12.83,0,0,0-3.47-5c-1.77-1.77-4.24-3.49-6.59-2.64a5,5,0,0,0-2.92,4.58c-.2,4.08,1.82,7.63,1.41,11.78-.29,3-.93,5.33,1.1,8,6.11,8.06,9.68-5.16,10.43-9.7"/><path class="cls-11" d="M553.22,288.9c1.87-2.66,3.78-5.41,4.52-8.58s0-6.91-2.54-8.88a4.45,4.45,0,0,0-3.56-1c-2.28.5-3.34,3.08-4,5.3-1.17,3.69-5.46,11.45-3.52,15.15,3,5.78,6.95,1.1,9.14-2"/><path class="cls-11" d="M541.87,313.73c1.54,2.53,3.89,4.93,6.84,5.09,2.52.14,4.81-1.4,6.7-3.08a14.51,14.51,0,0,0,2.84-3.26c2.42-4,1.36-9.57-1.91-12.92s-8.32-4.63-13-3.93c-10.41,1.56-5,12.26-1.52,18.1"/><path class="cls-11" d="M565,309.87a8.21,8.21,0,0,0,2.56-5.14,36.14,36.14,0,0,0-.18-4.88c-.11-4.33,1.71-8.44,2.68-12.66a5.76,5.76,0,0,0,.14-2.79,5.87,5.87,0,0,0-1.67-2.43c-3.88-3.91-7.82-4.47-12.21-1-2.86,2.27-5.81,5.56-4.79,9.42.71,2.69,11.42,21.4,13.47,19.49"/><path class="cls-11" d="M523.27,246a7.11,7.11,0,0,1,1.15-3.87,3.71,3.71,0,0,1,3.55-1.6,6,6,0,0,1,2.1,1l6.49,4.38a8.26,8.26,0,0,1,3.32,3.36,6.87,6.87,0,0,1,.11,3.87c-2.92,15.21-17.19,2.44-16.72-7.17"/><path class="cls-11" d="M551.28,269.25c.88-2.94,1.8-6,3.69-8.4s5-4.17,8-3.54a8.1,8.1,0,0,1,3.26,1.57,12.79,12.79,0,0,1,4.61,10.78,16.81,16.81,0,0,1-5.17,10.76c-.94.94-2.17,1.82-3.48,1.61a4.59,4.59,0,0,1-2.52-1.77c-3.38-3.83-9.32-9.64-7.47-15.18,1.14-3.39,4-5.18,3.55-9.2a11.1,11.1,0,0,0-4.38-7.17,6.26,6.26,0,0,0-4.69-1.55,5.66,5.66,0,0,0-2.86,1.61c-2.35,2.28-5.73,9.26-4.73,12.66.69,2.35,6.18,6.05,8.55,6.31a3.21,3.21,0,0,0,2.41-.92"/><path class="cls-11" d="M541.5,375.87c2.72,2.66,6.08,5,9.88,5.14a10.87,10.87,0,0,0,9.77-6.13c3.52-7.17-2.24-21.79-12-18.4-3.11,1.08-4.73,4.82-6.38,7.38-2.74,4.23-5.65,7.7-1.28,12"/><path class="cls-11" d="M547.46,357.1a11.21,11.21,0,0,0,8.43-5.28,6.22,6.22,0,0,0,.9-2,6.3,6.3,0,0,0-.35-3.48,9.27,9.27,0,0,0-7.19-6c-13.07-1.79-15.4,17.77-1.79,16.75"/><path class="cls-11" d="M543.84,325.18a5.88,5.88,0,0,0-2.56,5.17A11.51,11.51,0,0,0,543.2,336a13.18,13.18,0,0,0,3.75,4.14,9.12,9.12,0,0,0,10.19-.18,8.6,8.6,0,0,0,2.92-9.67,11.81,11.81,0,0,0-3-4.25,10.23,10.23,0,0,0-6.28-3.19,9,9,0,0,0-6.25,2.48,26.71,26.71,0,0,0-4.29,5.38"/><path class="cls-11" d="M562.31,333.68c1.68-1.29,4.15-.8,6,.29,8.19,4.92,6.38,18.23-3.62,19.14-12.42,1.12-9-14.27-2.34-19.43"/><path class="cls-11" d="M578.27,368c2.24-1.94,4.06-5.08,2.81-7.77a8,8,0,0,0-2.5-2.72c-4.2-3.28-7.46-5.91-12.7-3.57-3.67,1.63-6.56,3.86-7,8-1.4,12.77,12.12,12.38,19.41,6"/><path class="cls-11" d="M588.51,360.22c13.92-5-.48-25.09-11.47-17.88-11.61,7.62.19,21.9,11.47,17.88"/><path class="cls-11" d="M598.33,345.93a22.1,22.1,0,0,0,6.46-5.68c4.34-5.67.68-16.74-7-17.22-3.86-.23-7.19,3.3-11.11,2.39-4.72-1.09-6.74-6.38-6.35-10.69a14.92,14.92,0,0,1,2-6.64,8,8,0,0,1,5.59-3.84c3-.4,5.95,1.39,8.08,3.59a21.14,21.14,0,0,1,5.74,11.93c.15,1.26.1,2.76-.92,3.51s-2.08.45-3.17.4c-12.47-.47-5.7,16.28-17.13,17.51a13.24,13.24,0,0,1-8.33-2.18c-3.58-2.25-6.46-6.34-5.69-10.49a11.52,11.52,0,0,1,3.19-5.62,8.89,8.89,0,0,1,5.23-3.11,8.59,8.59,0,0,1,4.31.94c8.09,3.67,8.1,9.51,8.68,17.16.43,5.73,4.14,11.67,10.4,8"/><path class="cls-11" d="M552,313.31a6.5,6.5,0,0,0-2.28,5.67,8.94,8.94,0,0,0,1.92,3.62l6.42,8.64c1,1.37,2.46,2.9,4.11,2.48,4.38-1.11,8-13.12,6.85-17.26-1.93-7.1-12.41-7.52-17-3.15"/><path class="cls-11" d="M576.74,320.84a.81.81,0,0,0,1.32.15,11.5,11.5,0,0,0,4.1-6.05c.78-2.36,1.15-4.84,1.82-7.23.71-2.55,1.79-5.15,1.32-7.76a9.18,9.18,0,0,0-3.09-5.1c-5.25-4.75-15-2.79-17,4.46-2.34,8.29,6.92,15.95,11.54,21.53"/><path class="cls-11" d="M538.62,306.66a8.23,8.23,0,0,0,1.77,3.22,54.63,54.63,0,0,0,9.69,9.59,2.59,2.59,0,0,0,1.27.63,2.46,2.46,0,0,0,1.37-.43c3.16-1.83,5.48-4.8,7.68-7.72a9.5,9.5,0,0,0,2-3.63c.58-2.73-1.3-5.42-3.57-7-4.44-3.17-22.43-5.08-20.19,5.38"/><path class="cls-11" d="M597.19,303.43a26.34,26.34,0,0,0,2-6.1c1.16-4.79,2.27-10.08,0-14.44-1.74-3.32-5.11-5.41-8.33-7.34a17.44,17.44,0,0,0-5.54,9,39.06,39.06,0,0,0-1.08,10.68c0,4,0,8.32,3.35,10.93,3.77,3,7.48,1.21,9.58-2.77"/><path class="cls-11" d="M583.32,289.78c1.06-3.95,2-8,1.85-12.08s-1.78-8.29-5-10.8a3.76,3.76,0,0,0-2.24-.95,4,4,0,0,0-2.83,1.81c-4.11,5-5.38,11.87-5.07,18.36a8.76,8.76,0,0,0,.73,3.49,7.7,7.7,0,0,0,2.39,2.53c5.36,3.9,8.42,4.15,10.18-2.36"/><path class="cls-8" d="M968.71,923.24c-20-28-47.34-49.59-77.2-64.36-17.56-8.69-36.4-15.17-55.57-15.45-39.08-.59-75,25.53-95.2,60.62s-26.26,77.89-25,119.55c1,33.6,9.25,71.77,36.79,88.9,10.09,6.27,21.68,8.91,33,11.45,31,6.93,62.89,13.8,94,8.94,44.25-6.9,81.82-38.23,104.41-78.1,10.42-18.4,18.6-35.53,15.35-57.48-3.95-26.72-15.08-52.43-30.56-74.07"/><path class="cls-9" d="M957.36,1021.19c5.66-9.67,3.47-21.81,1.1-32.76-2.21-10.28-4.82-21.24-12.59-28.31a34,34,0,0,0-12.44-6.85c-7.58-2.49-16.31-3.07-23.19,1-4.45,2.62-7.66,6.89-10.56,11.16-6.51,9.58-12.23,20-14.42,31.33-3.7,19.24,6.17,44.09,28.79,44.53,12.62.25,36.93-9.17,43.31-20.08"/><path class="cls-10" d="M921.77,1017.9c10.18-6,15.32-19.35,11.81-30.61-.75-2.41-2-4.82-4.09-6.15-3.85-2.39-8.9-.29-12.56,2.4-7.76,5.68-13.78,15.09-12,24.55s14.06,16.3,21.69,10.46c5.44-4.16,6.11-12,6.06-18.83"/><path class="cls-9" d="M886.92,942.11c6.1,1.89,12.57-.9,18.35-3.63,5.41-2.56,11.17-5.43,14.09-10.67a19.54,19.54,0,0,0,2.19-7.8c.4-4.53-.42-9.45-3.55-12.74-2-2.14-4.82-3.36-7.58-4.42-6.15-2.38-12.66-4.21-19.26-4-11.17.43-23.69,9.13-21,21.76,1.5,7,9.88,19.32,16.76,21.45"/><path class="cls-10" d="M884.14,921.92a15.54,15.54,0,0,0,18.54,2.59,6.14,6.14,0,0,0,2.88-3.07c.82-2.45-1-5-3-6.67-4.17-3.57-10.18-5.69-15.2-3.49s-7.23,9.92-3,13.4c3,2.49,7.45,1.84,11.25.93"/><path class="cls-9" d="M863.53,1034.2c5.36-3.49,7.33-10.25,8.92-16.43,1.48-5.81,2.95-12.07.78-17.66a19.54,19.54,0,0,0-4.61-6.67c-3.23-3.2-7.54-5.71-12.08-5.4-2.94.21-5.66,1.57-8.24,3-5.76,3.22-11.31,7.07-15.33,12.31-6.79,8.88-8.09,24.07,3.35,30.06,6.37,3.34,21.18,4.73,27.21.78"/><path class="cls-10" d="M846.21,1023.46A15.51,15.51,0,0,0,860,1010.85a6.11,6.11,0,0,0-.51-4.18c-1.36-2.2-4.48-2.42-7-2-5.41.92-10.89,4.2-12.4,9.47s3,11.89,8.41,10.86c3.84-.73,6.17-4.56,7.89-8.06"/><path class="cls-9" d="M755,931c-4.42,12.08.54,25.35,5.45,37.24,4.6,11.15,9.79,23,20,29.41a39.18,39.18,0,0,0,15.45,5.21c9.08,1.25,19.05.12,26-5.85,4.49-3.88,7.25-9.36,9.66-14.78,5.4-12.14,9.73-25,9.88-38.33.26-22.5-16-48.55-41.62-44.44C785.53,901.76,760,917.37,755,931"/><path class="cls-10" d="M795.88,927.45c-10.27,8.85-13.35,25-7.08,37,1.33,2.56,3.18,5,5.87,6.11,4.84,1.9,10.12-1.5,13.71-5.28,7.6-8,12.48-19.87,8.56-30.19s-19.22-15.56-26.65-7.4c-5.3,5.82-4.45,14.79-3,22.52"/><path d="M988.47,997.65c3.33-6.6,7.65-13.37,6.8-20.7-1.35-11.56-16.26-17.81-27-13.39s-17,16.1-18.75,27.6.11,23.2.86,34.81.2,23.87-5.73,33.88c-2.76,4.64-6.8,8.74-11.92,10.46-8.11,2.73-17.2-1.11-23.39-7s-10.23-13.65-14.9-20.83c-21.26-32.74-60.67-55.69-99.13-49C786,995.13,777,998.44,769.41,1004c-14.62,10.83-22.06,29-25.48,46.83-3.53,18.49-3.4,38.1,3.52,55.61,4,10.07,13.12,20.57,23.62,17.94,7.81-2,12.21-10.65,12.52-18.7s-2.38-15.86-3.79-23.78a76.22,76.22,0,0,1,17.9-63.11c3.91-4.39,10.88-8.39,15.11-4.32,2.59,2.48,2.4,6.56,2.8,10.13,2,18.19,21.47,28,35,40.33,10.35,9.39,17.91,21.47,27.63,31.53s22.9,18.39,36.81,16.91c8-.86,15.4-4.92,22.14-9.41,14-9.33,39.34-27.49,43.76-44.83,5.31-20.77-3.35-40,7.5-61.49"/><path class="cls-11" d="M986,1006.48c-7.92-4.19.91-14.48,7-16.16L1037,978.18c2.66-.73,5.46-1.46,8.14-.8a14,14,0,0,1,6.09,4,18.22,18.22,0,0,1,5,7.37c.86,2.87.35,6.33-1.91,8.3a12.31,12.31,0,0,1-5.5,2.26c-8.56,2-17.16,4-25.93,4.62-12,.89-23.89,3-35.81,3.63-13.09.72-15.55,6.88-12.77,19.07a9.05,9.05,0,0,0,1.64,4.05,8.18,8.18,0,0,0,4.46,2.2c15.24,3.48,31-3.14,44-11.8,2.7-1.79,5.61-4.19,5.59-7.44,0-2.9-2.59-5.28-5.38-6.09s-5.76-.44-8.64-.1a229.41,229.41,0,0,1-35.06,1.37"/><path class="cls-11" d="M1008.3,1037.26a36.84,36.84,0,0,1,9.56-1.14,15.82,15.82,0,0,1,11.19,5.27,12.11,12.11,0,0,1,2.29,11.91c-2.5,6.46-10.24,8.82-17,10.36l-22.77,5.19c-3.06.7-6.19,1.4-9.3,1s-6.23-2.19-7.36-5.11c-1.9-4.91,2.37-10,2.77-15.26.61-8.36,2.85-6.82,10-7.93,6.89-1.06,13.75-2.86,20.59-4.28"/><path class="cls-11" d="M1007.48,1025.69c6.82-2.57,13.46-5.75,20.55-7.48,6.07-1.48,13.08-1.68,17.92,2.28,3.74,3,5.4,8,6,12.78a7.62,7.62,0,0,1,0,2.52,6.46,6.46,0,0,1-2,3.29,13.35,13.35,0,0,1-13.79,3c-2.62-1-4.85-2.75-7.35-4-14.26-7.12-32.62,4.5-47-2.46-4.9-2.38,8.5-4.83,9.18-5a127.3,127.3,0,0,0,16.32-5"/><path class="cls-11" d="M971.51,1066.1a1.64,1.64,0,0,0-.81.46c-.51.64.11,1.56.73,2.09,4.6,4,10.62,5.9,16.59,6.95,7.48,1.33,15.75,1.7,21.42,6.75,2.66,2.36,4.51,5.6,7.43,7.63,12.3,8.58,13.16-18.08,2.36-22.66-12.48-5.29-35.09-5.36-47.72-1.22"/><path class="cls-11" d="M957.1,1094.78a14.14,14.14,0,0,1-3.82-2.49c-3-3-3-8.31-.59-11.84s6.84-5.34,11.13-5.47c6-.17,11.63,2.57,17.59,3,4.17.28,8.44-.57,12.49.48,7.4,1.93,13.7,10.33,7.7,17.18-3.35,3.8-8.72,2.82-12.47,5.64-3.28,2.49-7.2,10.07-7.71,14a11.43,11.43,0,0,0,1.66,6.84,24.64,24.64,0,0,0,38.61,6.17,6.46,6.46,0,0,0,2-3,7.34,7.34,0,0,0-.17-3.19l-2.19-10.85a15.66,15.66,0,0,0-1.4-4.49c-1.54-2.74-4.6-4.28-7.63-5.15-9.2-2.66-18.26.49-27.5-.35-9.64-.88-18.94-2.08-27.75-6.39"/><path class="cls-11" d="M809.19,1012.47c-6,.15-12.39,1.4-16.72,5.58-4.61,4.47-5.93,11.81-3.76,17.86,4.29,11.89,27.24,21.39,34.12,6.58,2.19-4.73-.3-10.69-1.39-15.37-1.8-7.76-2.55-14.89-12.25-14.65"/><path class="cls-11" d="M824,1039.87a17.72,17.72,0,0,0-3.28,15.39,10.24,10.24,0,0,0,1.32,3.23,9.79,9.79,0,0,0,4.35,3.44,14.64,14.64,0,0,0,14.67-1.61c16.41-12.91-3.27-37.06-17.06-20.45"/><path class="cls-11" d="M864.27,1070.83c.71-3.11-.74-6.42-3.07-8.59a18.16,18.16,0,0,0-8.55-4,20.42,20.42,0,0,0-8.83-.29,14.39,14.39,0,0,0-11,11.77,13.61,13.61,0,0,0,7.79,14,18.57,18.57,0,0,0,8.17,1.22c3.79-.15,7.75-1.05,10.53-3.63s3.87-6.21,4-9.84a42,42,0,0,0-1.4-10.78"/><path class="cls-11" d="M834.29,1082.51c-.37,3.31-3.64,5.59-6.87,6.45-14.6,3.9-27.76-12.78-17.8-25.15,12.38-15.37,26.14,5.43,24.67,18.7"/><path class="cls-11" d="M777.76,1063c-.24,4.68,1.33,10.2,5.75,11.72a12.69,12.69,0,0,0,5.85.16c8.35-1.17,14.92-2,18-10.52,2.16-6,2.81-11.71-1.42-16.81-13-15.63-27.41.18-28.21,15.45"/><path class="cls-11" d="M775.32,1083.14c-9.66,21.28,29.06,27,32.94,6.59,4.09-21.58-25.12-23.85-32.94-6.59"/><path class="cls-8" d="M1892.71-64.76c-20-28-47.34-49.59-77.2-64.36-17.56-8.69-36.4-15.17-55.57-15.45-39.08-.59-75,25.53-95.2,60.62s-26.26,77.89-25,119.55c1,33.6,9.25,71.77,36.79,88.9,10.09,6.27,21.68,8.91,33,11.45,31,6.93,62.89,13.8,94,8.94,44.25-6.9,81.82-38.23,104.41-78.1,10.42-18.4,18.6-35.53,15.35-57.48-4-26.72-15.08-52.43-30.56-74.07"/><path class="cls-9" d="M1881.36,33.19c5.66-9.67,3.47-21.81,1.1-32.76-2.21-10.28-4.82-21.24-12.59-28.31a34,34,0,0,0-12.44-6.85c-7.58-2.49-16.31-3.07-23.19,1-4.45,2.62-7.66,6.89-10.56,11.16-6.51,9.58-12.23,20-14.42,31.33-3.7,19.24,6.17,44.09,28.79,44.53,12.62.25,36.93-9.17,43.31-20.08"/><path class="cls-10" d="M1845.77,29.9c10.18-6,15.32-19.35,11.81-30.61-.75-2.41-1.95-4.82-4.09-6.15-3.85-2.39-8.9-.29-12.56,2.4-7.76,5.68-13.78,15.09-12,24.55s14.06,16.3,21.69,10.46c5.44-4.16,6.11-12,6.06-18.83"/><path class="cls-9" d="M1787.53,46.2c5.36-3.49,7.33-10.25,8.92-16.43,1.48-5.81,3-12.07.78-17.66a19.54,19.54,0,0,0-4.61-6.67c-3.23-3.2-7.54-5.71-12.08-5.4-2.94.21-5.66,1.57-8.24,3-5.76,3.22-11.31,7.07-15.33,12.31-6.79,8.88-8.09,24.07,3.35,30.06,6.37,3.34,21.18,4.73,27.21.78"/><path class="cls-10" d="M1770.21,35.46A15.51,15.51,0,0,0,1784,22.85a6.11,6.11,0,0,0-.51-4.18c-1.36-2.2-4.48-2.42-7-2-5.41.92-10.89,4.2-12.4,9.47s3,11.89,8.41,10.86c3.84-.73,6.17-4.56,7.89-8.06"/><path class="cls-9" d="M1679-57c-4.42,12.08.54,25.35,5.45,37.24,4.6,11.15,9.79,23,20,29.41a39.18,39.18,0,0,0,15.45,5.21c9.08,1.25,19,.12,26-5.85,4.49-3.88,7.25-9.36,9.66-14.78,5.4-12.14,9.73-25,9.88-38.33.26-22.5-16-48.55-41.62-44.44C1709.53-86.24,1684-70.63,1679-57"/><path d="M1912.47,9.65c3.33-6.6,7.65-13.37,6.8-20.7-1.35-11.56-16.26-17.81-27-13.39s-17,16.1-18.75,27.6.11,23.2.86,34.81.2,23.87-5.73,33.88c-2.76,4.64-6.8,8.74-11.92,10.46-8.11,2.73-17.2-1.11-23.39-7s-10.23-13.65-14.9-20.83c-21.26-32.74-60.67-55.69-99.13-48.95C1710,7.13,1701,10.44,1693.41,16c-14.62,10.83-22.06,29-25.48,46.83-3.53,18.49-3.4,38.1,3.52,55.61,4,10.07,13.12,20.57,23.62,17.94,7.81-2,12.21-10.65,12.52-18.7s-2.38-15.86-3.79-23.78a76.22,76.22,0,0,1,17.9-63.11c3.91-4.39,10.88-8.39,15.11-4.32,2.59,2.48,2.4,6.56,2.8,10.13,2,18.19,21.47,28,35,40.33,10.35,9.39,17.91,21.47,27.63,31.53s22.9,18.39,36.81,16.91c8-.86,15.4-4.92,22.14-9.41,14-9.33,39.34-27.49,43.76-44.83,5.31-20.77-3.35-40,7.5-61.49"/><path class="cls-11" d="M1910,18.48c-7.92-4.19.91-14.48,7-16.16L1961-9.82c2.66-.73,5.46-1.46,8.14-.8a14,14,0,0,1,6.09,4,18.22,18.22,0,0,1,5,7.37c.86,2.87.35,6.33-1.91,8.3a12.31,12.31,0,0,1-5.5,2.26c-8.56,2-17.16,4-25.93,4.62-12,.89-23.89,3-35.81,3.63-13.09.72-15.55,6.88-12.77,19.07a9.05,9.05,0,0,0,1.64,4,8.18,8.18,0,0,0,4.46,2.2c15.24,3.48,31-3.14,44-11.8,2.7-1.79,5.61-4.19,5.59-7.44,0-2.9-2.59-5.28-5.38-6.09s-5.76-.44-8.64-.1a229.41,229.41,0,0,1-35.06,1.37"/><path class="cls-11" d="M1932.3,49.26a36.84,36.84,0,0,1,9.56-1.14,15.82,15.82,0,0,1,11.19,5.27,12.11,12.11,0,0,1,2.29,11.91c-2.5,6.46-10.24,8.82-17,10.36l-22.77,5.19c-3.06.7-6.19,1.4-9.3,1s-6.23-2.19-7.36-5.11c-1.9-4.91,2.37-10,2.77-15.26.61-8.36,2.85-6.82,10-7.93,6.89-1.06,13.75-2.86,20.59-4.28"/><path class="cls-11" d="M1931.48,37.69c6.82-2.57,13.46-5.75,20.55-7.48,6.07-1.48,13.08-1.68,17.92,2.28,3.74,3,5.4,8,6,12.78a7.62,7.62,0,0,1,0,2.52,6.46,6.46,0,0,1-2,3.29,13.35,13.35,0,0,1-13.79,3c-2.62-1-4.85-2.75-7.35-4-14.26-7.12-32.62,4.5-47-2.46-4.9-2.38,8.5-4.83,9.18-5a127.3,127.3,0,0,0,16.32-5"/><path class="cls-11" d="M1895.51,78.1a1.64,1.64,0,0,0-.81.46c-.51.64.11,1.56.73,2.09,4.6,4,10.62,5.9,16.59,6.95,7.48,1.33,15.75,1.7,21.42,6.75,2.66,2.36,4.51,5.6,7.43,7.63,12.3,8.58,13.16-18.08,2.36-22.66-12.48-5.29-35.09-5.36-47.72-1.22"/><path class="cls-11" d="M1881.1,106.78a14.14,14.14,0,0,1-3.82-2.49c-3-3-3-8.31-.59-11.84s6.84-5.34,11.13-5.47c6-.17,11.63,2.57,17.59,3,4.17.28,8.44-.57,12.49.48,7.4,1.93,13.7,10.33,7.7,17.18-3.35,3.8-8.72,2.82-12.47,5.64-3.28,2.49-7.2,10.07-7.71,13.95a11.43,11.43,0,0,0,1.66,6.84,24.64,24.64,0,0,0,38.61,6.17,6.46,6.46,0,0,0,2-3,7.34,7.34,0,0,0-.17-3.19l-2.19-10.85a15.66,15.66,0,0,0-1.4-4.49c-1.54-2.74-4.6-4.28-7.63-5.15-9.2-2.66-18.26.49-27.5-.35-9.64-.88-18.94-2.08-27.75-6.39"/><path class="cls-11" d="M1859.55,111.54a6,6,0,0,0-2.17,1.74,5.31,5.31,0,0,0-.68,2.6,16.43,16.43,0,0,0,5.1,12.74,27.46,27.46,0,0,0,8.68,5.06c8.19,3.34,17.36,5.5,25.85,3a5.94,5.94,0,0,0,2.46-1.22,6.78,6.78,0,0,0,1.52-2.74l3.9-10.63a3.08,3.08,0,0,0,.28-1.65,2.91,2.91,0,0,0-1-1.48c-6-5.53-14.14-7.38-21.79-9.52-9.64-2.7-13-3.08-22.13,2.09"/><path class="cls-11" d="M1803.45,93.18c-4.56-1-9.88-1-13.31,2.19-2.91,2.71-3.7,7-3.85,11a23.28,23.28,0,0,0,.58,6.82c1.91,7.16,9.39,12.06,16.8,12s14.4-4.38,18.7-10.43c9.66-13.54-8.4-19.22-18.92-21.61"/><path class="cls-11" d="M1733.19,24.47c-6,.15-12.39,1.4-16.72,5.58-4.61,4.47-5.93,11.81-3.76,17.86C1717,59.8,1740,69.3,1746.83,54.49c2.19-4.73-.3-10.69-1.39-15.37-1.8-7.76-2.55-14.89-12.25-14.65"/><path class="cls-11" d="M1748,51.87a17.72,17.72,0,0,0-3.28,15.39,10.24,10.24,0,0,0,1.32,3.23,9.79,9.79,0,0,0,4.35,3.44,14.64,14.64,0,0,0,14.67-1.61c16.41-12.91-3.27-37.06-17.06-20.45"/><path class="cls-11" d="M1788.27,82.83c.71-3.11-.74-6.42-3.07-8.59a18.16,18.16,0,0,0-8.55-4,20.42,20.42,0,0,0-8.83-.29,14.39,14.39,0,0,0-11,11.77,13.61,13.61,0,0,0,7.79,14,18.57,18.57,0,0,0,8.17,1.22c3.79-.15,7.75-1,10.53-3.63s3.87-6.21,4-9.84a42,42,0,0,0-1.4-10.78"/><path class="cls-11" d="M1758.29,94.51c-.37,3.31-3.64,5.59-6.87,6.45-14.6,3.9-27.76-12.78-17.8-25.15,12.38-15.37,26.14,5.43,24.67,18.7"/><path class="cls-11" d="M1701.76,75c-.24,4.68,1.33,10.2,5.75,11.72a12.69,12.69,0,0,0,5.85.16c8.35-1.17,14.92-2,18-10.52,2.16-6,2.81-11.71-1.42-16.81-13-15.63-27.41.18-28.21,15.45"/><path class="cls-11" d="M1699.32,95.14c-9.66,21.28,29.06,27,32.94,6.59,4.09-21.58-25.12-23.85-32.94-6.59"/><path class="cls-11" d="M1704.78,122a35.06,35.06,0,0,0-.64,13.61c1.67,11.16,18.29,19.17,27.26,11,4.5-4.12,4.16-11.79,9.49-15.25,6.44-4.17,14.68-.67,19.15,4.52a23.68,23.68,0,0,1,5.35,9.59,12.8,12.8,0,0,1-1.78,10.58c-2.89,3.88-8.13,5.22-13,5.23a33.35,33.35,0,0,1-19.88-6.58c-1.61-1.2-3.26-2.91-3-4.91.24-1.7,1.78-2.85,3-4,14.26-13.65-12.24-24.38-1.09-38.71a21,21,0,0,1,11.65-7.09c6.49-1.6,14.3-.38,18.19,5.06,2,2.81,2.7,6.36,2.88,9.81.15,3.27-.2,6.78-2.23,9.36a13.42,13.42,0,0,1-5.78,3.86c-13.09,5.17-19.74-1.24-29.06-9-7-5.8-17.83-8.12-20.58,3"/><path class="cls-11" d="M1792.83,105.12c0-3.36-1.13-7-3.94-8.82a14.37,14.37,0,0,0-6.23-1.8l-16.88-2.18c-2.67-.35-6-.39-7.34,1.94-3.56,6.22,6.16,23.49,12.11,26.76,10.18,5.61,22.18-5.85,22.28-15.9"/><path class="cls-11" d="M1815.08,97.25a13.13,13.13,0,0,0-5.62-1.53,87,87,0,0,0-21.57.49,4,4,0,0,0-2.1.75,3.82,3.82,0,0,0-1,2c-1.39,5.61-.56,11.52.34,17.23a15.12,15.12,0,0,0,2,6.23c2.47,3.66,7.6,4.48,11.94,3.68,8.47-1.57,30.42-19.91,16.08-28.88"/><path class="cls-3" d="M517.13,541c1.5-.72,1.6-3,.63-4.3a8.57,8.57,0,0,0-4.14-2.59c-1.28-.49-2.57-1-3.84-1.48a12.25,12.25,0,0,0-4.79-1.12,4.22,4.22,0,0,0-3.93,2.5,5.53,5.53,0,0,0-.13,2.43c.23,2.43.77,9.95,3,11.46,2.43,1.66,3.08-.72,3.29-2.74.15-1.39-1-3.51.24-4.67,2.1-2,7,1.84,9.7.51"/></g></svg>